<svg preserveAspectRatio="none" width="100%" height="100%" overflow="visible" style="display: block;" viewBox="0 0 576.488 75.575" fill="none" xmlns="http://www.w3.org/2000/svg">
<g id="Group">
<path id="Vector" d="M10.8878 67.675C10.8878 71.475 13.9878 74.575 17.7878 74.575H52.7878C59.1878 74.575 63.7878 73.075 66.7878 70.075C69.7878 67.075 71.2878 62.375 71.2878 56.075C71.2878 53.375 70.9878 51.075 70.2878 48.975C69.5878 46.975 68.6878 45.175 67.6878 43.775C66.5878 42.375 65.3878 41.175 63.8878 40.375C62.4878 39.575 61.0878 38.875 59.5878 38.475C62.0878 37.475 64.0878 35.775 65.7878 33.375C67.4878 30.975 69.9878 26.075 69.9878 22.175C69.9878 16.275 66.7878 13.575 63.7878 10.675C60.7878 7.775 56.0878 6.375 49.7878 6.375H30.9878L44.3878 19.975H44.9878C48.8878 19.975 50.7878 21.875 50.7878 25.775V27.675C50.7878 30.875 48.1878 33.475 44.9878 33.475H28.3878V22.275C31.4878 25.175 33.0878 25.275 36.9878 21.475C38.4878 20.075 38.4878 17.675 36.9878 16.175L21.9878 1.275C20.2878 -0.425 17.5878 -0.425 15.9878 1.275L1.08782 16.175C-0.412177 17.675 -0.312177 19.975 1.08782 21.475C4.28782 24.675 5.98782 25.075 8.18782 23.375L10.7878 20.875L10.8878 67.675ZM53.6878 55.075C53.6878 58.275 51.0878 60.875 47.8878 60.875H31.0878C29.5878 60.875 28.3878 59.675 28.3878 58.175V47.275H47.8878C51.0878 47.275 53.6878 49.875 53.6878 53.075V55.075Z" fill="var(--fill-0, #D54315)"/>
<g id="Group_2">
<path id="Vector_2" d="M405.888 74.475V28.175H387.588V14.775H440.988V28.175H422.788V74.375H405.888V74.475Z" fill="var(--fill-0, #D54315)"/>
<path id="Vector_3" d="M475.688 75.575C470.888 75.575 466.488 74.775 462.488 73.275C458.488 71.775 454.988 69.575 451.988 66.775C448.988 63.975 446.688 60.675 445.088 56.975C443.488 53.275 442.588 49.075 442.588 44.575C442.588 40.075 443.388 35.975 445.088 32.175C446.688 28.475 449.088 25.175 451.988 22.375C454.988 19.575 458.488 17.375 462.488 15.875C466.488 14.375 470.888 13.575 475.688 13.575C480.488 13.575 484.888 14.375 488.888 15.875C492.888 17.375 496.388 19.575 499.288 22.375C502.288 25.175 504.588 28.475 506.188 32.175C507.888 35.875 508.688 40.075 508.688 44.575C508.688 49.075 507.888 53.175 506.188 56.975C504.488 60.775 502.188 64.075 499.288 66.775C496.288 69.575 492.888 71.675 488.888 73.275C484.888 74.875 480.488 75.575 475.688 75.575ZM475.688 61.675C477.988 61.675 480.088 61.275 481.988 60.475C483.988 59.675 485.688 58.575 487.088 57.075C488.488 55.575 489.688 53.775 490.488 51.675C491.288 49.575 491.688 47.275 491.688 44.675C491.688 42.075 491.288 39.675 490.488 37.675C489.688 35.575 488.488 33.775 487.088 32.275C485.688 30.775 483.888 29.575 481.988 28.875C479.988 28.075 477.888 27.675 475.688 27.675C473.388 27.675 471.288 28.075 469.388 28.875C467.388 29.675 465.688 30.775 464.288 32.275C462.888 33.775 461.688 35.575 460.888 37.675C460.088 39.775 459.688 42.075 459.688 44.675C459.688 47.275 460.088 49.575 460.888 51.675C461.688 53.775 462.888 55.575 464.288 57.075C465.688 58.575 467.488 59.775 469.388 60.475C471.288 61.275 473.388 61.675 475.688 61.675Z" fill="var(--fill-0, #D54315)"/>
<path id="Vector_4" d="M516.788 74.475V14.775H533.488V74.375H516.788V74.475ZM531.888 61.175L530.988 42.275L556.588 14.775H575.188L549.588 42.475L540.188 52.275L531.888 61.175ZM556.888 74.475L537.488 49.875L548.488 38.075L576.488 74.475H556.888Z" fill="var(--fill-0, #D54315)"/>
</g>
<g id="Group_3">
<path id="Vector_5" d="M84.8878 14.875V52.375C84.8878 58.275 86.2878 62.675 89.0878 65.475C91.8878 68.275 95.7878 69.775 100.588 69.775C105.488 69.775 109.288 68.375 112.088 65.575C114.888 62.775 116.188 58.375 116.188 52.375V14.875H122.188V52.275C122.188 59.875 120.188 65.475 116.188 69.275C112.188 73.075 106.988 74.975 100.588 74.975C94.1878 74.975 88.9878 73.075 84.9878 69.275C80.9878 65.475 78.9878 59.775 78.9878 52.275V14.875H84.8878Z" fill="var(--fill-0, #223A8E)"/>
<path id="Vector_6" d="M140.588 14.875V74.375H134.588V14.875H140.588Z" fill="var(--fill-0, #223A8E)"/>
<path id="Vector_7" d="M159.288 69.575H180.688V74.475H153.388V14.875H159.388V69.575H159.288Z" fill="var(--fill-0, #223A8E)"/>
<path id="Vector_8" d="M222.888 18.475C227.588 20.875 231.188 24.275 233.688 28.775C236.188 33.275 237.388 38.575 237.388 44.775C237.388 50.875 236.188 56.175 233.688 60.675C231.188 65.175 227.588 68.575 222.888 70.875C218.188 73.275 212.488 74.375 205.988 74.375H188.388V14.875H205.988C212.488 14.875 218.188 16.075 222.888 18.475ZM224.888 62.975C229.188 58.675 231.388 52.575 231.388 44.775C231.388 36.975 229.188 30.775 224.888 26.375C220.588 21.975 214.188 19.775 205.888 19.775H194.188V69.475H205.888C214.188 69.475 220.588 67.275 224.888 62.975Z" fill="var(--fill-0, #223A8E)"/>
<path id="Vector_9" d="M253.588 14.875V74.375H247.588V14.875H253.588Z" fill="var(--fill-0, #223A8E)"/>
<path id="Vector_10" d="M311.088 74.475H305.088L272.088 24.375V74.475H266.088V14.875H272.088L305.088 64.875V14.875H311.088V74.475Z" fill="var(--fill-0, #223A8E)"/>
<path id="Vector_11" d="M370.688 32.275C368.988 28.375 366.388 25.275 362.888 23.075C359.388 20.875 355.288 19.675 350.588 19.675C346.188 19.675 342.188 20.675 338.688 22.775C335.188 24.775 332.388 27.775 330.388 31.475C328.388 35.275 327.288 39.675 327.288 44.675C327.288 49.675 328.288 54.075 330.388 57.875C332.388 61.675 335.188 64.575 338.688 66.675C342.188 68.675 346.188 69.775 350.588 69.775C354.688 69.775 358.488 68.875 361.788 67.075C365.088 65.275 367.788 62.775 369.788 59.375C371.788 56.075 372.988 52.175 373.188 47.775H348.188V42.875H379.488V47.175C379.188 52.375 377.788 57.175 375.188 61.375C372.588 65.575 369.188 68.975 364.888 71.375C360.588 73.775 355.788 75.075 350.488 75.075C344.988 75.075 339.988 73.775 335.488 71.175C330.988 68.575 327.488 64.975 324.888 60.375C322.288 55.775 320.988 50.475 320.988 44.675C320.988 38.875 322.288 33.575 324.888 28.975C327.488 24.375 330.988 20.775 335.488 18.175C339.988 15.575 344.988 14.275 350.488 14.275C356.888 14.275 362.388 15.875 367.188 19.075C371.988 22.275 375.388 26.675 377.588 32.375H370.688V32.275Z" fill="var(--fill-0, #223A8E)"/>
</g>
</g>
</svg>
