<svg preserveAspectRatio="none" width="100%" height="100%" overflow="visible" style="display: block;" viewBox="0 0 15 15" fill="none" xmlns="http://www.w3.org/2000/svg">
<g id="icon_IniciarSesion 1" clip-path="url(#clip0_543_556)">
<path id="Vector" d="M6.654 6.8505C5.74107 6.8533 4.86425 6.49414 4.21562 5.85169C3.567 5.20925 3.19945 4.33591 3.1935 3.423C3.19449 2.50005 3.56209 1.61529 4.21542 0.963367C4.86875 0.311443 5.7543 -0.0542446 6.67725 -0.05325C7.6002 -0.0522554 8.48496 0.31534 9.13688 0.96867C9.78881 1.622 10.1545 2.50755 10.1535 3.4305C10.1496 3.88523 10.0558 4.33469 9.8776 4.75305C9.69936 5.17141 9.44018 5.55041 9.11496 5.86824C8.78973 6.18608 8.40488 6.43648 7.98254 6.60505C7.5602 6.77363 7.1087 6.85704 6.654 6.8505ZM6.6735 6.1635C7.40447 6.16789 8.10733 5.88213 8.62785 5.36892C9.14838 4.85571 9.44405 4.15696 9.45 3.426C9.43312 2.69902 9.13248 2.0075 8.61236 1.49932C8.09223 0.991131 7.39392 0.706618 6.66675 0.706618C5.93958 0.706618 5.24127 0.991131 4.72114 1.49932C4.20102 2.0075 3.90038 2.69902 3.8835 3.426C3.88584 3.78926 3.95999 4.14847 4.10168 4.48297C4.24337 4.81747 4.44981 5.12065 4.7091 5.37507C4.9684 5.62949 5.27545 5.83012 5.61258 5.96543C5.9497 6.10074 6.31026 6.16806 6.6735 6.1635Z" fill="var(--fill-0, #0E4D80)"/>
<path id="Vector_2" d="M5.898 13.8735C6.138 13.8855 6.303 14.0235 6.303 14.2215C6.30025 14.2713 6.28737 14.3199 6.26515 14.3645C6.24294 14.4091 6.21184 14.4487 6.17379 14.4809C6.13573 14.513 6.0915 14.5371 6.04382 14.5515C5.99614 14.566 5.94601 14.5706 5.8965 14.565H1.1385C0.438 14.5635 -1.53886e-10 14.1375 -1.53886e-10 13.449C-1.53886e-10 12.6645 -1.53886e-10 11.88 -1.53886e-10 11.1C-0.00913218 10.8971 0.0432706 10.6961 0.150339 10.5234C0.257407 10.3508 0.414143 10.2145 0.6 10.1325C2.22072 9.29944 3.99664 8.81166 5.8155 8.7C6.102 8.6805 6.279 8.7945 6.3015 9.0075C6.324 9.2205 6.162 9.3615 5.871 9.381C4.17081 9.48816 2.50969 9.93711 0.987 10.701C0.89649 10.7366 0.819948 10.8006 0.76884 10.8833C0.717731 10.9661 0.694807 11.0631 0.7035 11.16C0.7155 11.8815 0.7035 12.6045 0.7035 13.3275C0.7035 13.812 0.765 13.872 1.245 13.8735H5.898Z" fill="var(--fill-0, #0E4D80)"/>
<path id="Vector_3" d="M8.223 11.046C8.223 10.3155 8.223 9.585 8.223 8.853C8.223 7.803 8.931 7.1085 9.996 7.113C10.5559 7.10054 11.1159 7.12962 11.6715 7.2C11.949 7.2435 12.2085 7.47 12.4485 7.65C12.4892 7.67617 12.5229 7.71178 12.5468 7.75379C12.5708 7.79581 12.5842 7.84298 12.5859 7.8913C12.5877 7.93962 12.5778 7.98765 12.557 8.0313C12.5362 8.07495 12.5051 8.11293 12.4665 8.142C12.4352 8.17868 12.396 8.20786 12.3519 8.2274C12.3078 8.24694 12.2599 8.25634 12.2117 8.2549C12.1634 8.25346 12.1162 8.24122 12.0733 8.21909C12.0304 8.19695 11.9931 8.16548 11.964 8.127C11.8528 8.01241 11.7178 7.92371 11.5684 7.8672C11.4191 7.81068 11.2592 7.78774 11.1 7.8C10.692 7.8135 10.284 7.8 9.8775 7.8C9.7534 7.79701 9.62995 7.81877 9.51436 7.86402C9.39877 7.90926 9.29335 7.97709 9.20425 8.06353C9.11516 8.14997 9.04418 8.25329 8.99547 8.36746C8.94675 8.48163 8.92126 8.60437 8.9205 8.7285C8.9105 10.2715 8.9105 11.814 8.9205 13.356C8.92187 13.4802 8.94772 13.603 8.99658 13.7172C9.04544 13.8314 9.11634 13.9349 9.20522 14.0217C9.29411 14.1085 9.39924 14.1769 9.5146 14.223C9.62995 14.2692 9.75327 14.2921 9.8775 14.2905C10.3273 14.3137 10.7781 14.3102 11.2275 14.28C11.4718 14.2397 11.7036 14.1443 11.9055 14.001C12.1365 13.851 12.312 13.8105 12.4575 13.959C12.603 14.1075 12.588 14.3205 12.3795 14.517C12.1162 14.7839 11.7637 14.9441 11.3895 14.967C10.8291 15.0023 10.2669 15.0023 9.7065 14.967C9.30212 14.9317 8.92568 14.746 8.65156 14.4466C8.37744 14.1472 8.22559 13.7559 8.226 13.35C8.214 12.5805 8.223 11.814 8.223 11.046Z" fill="var(--fill-0, #0E4D80)"/>
<path id="Vector_4" d="M14.559 10.6845H11.43L12.2085 9.9345C12.4305 9.72 12.459 9.498 12.3015 9.3345C12.144 9.171 11.91 9.1935 11.6925 9.405C11.2375 9.846 10.7875 10.2895 10.3425 10.7355C10.1205 10.9545 10.116 11.139 10.332 11.352C10.794 11.8125 11.2635 12.2655 11.73 12.723C11.904 12.894 12.093 12.9405 12.2925 12.7725C12.4425 12.6435 12.4425 12.4365 12.2925 12.255H12.2835C12.2708 12.2383 12.2573 12.2223 12.243 12.207L12.1965 12.1695L11.433 11.4195H14.5665C14.8095 11.4195 14.9835 11.328 14.9985 11.064C15.0135 10.8285 14.85 10.695 14.559 10.6845Z" fill="var(--fill-0, #16D63D)"/>
</g>
<defs>
<clipPath id="clip0_543_556">
<rect width="15" height="15" fill="white"/>
</clipPath>
</defs>
</svg>
