<svg preserveAspectRatio="none" width="100%" height="100%" overflow="visible" style="display: block;" viewBox="0 0 5.75161 7.48781" fill="none" xmlns="http://www.w3.org/2000/svg">
<path id="Vector" d="M2.28882 0.683729V5.54073L1.10982 4.33173C0.772323 3.98673 0.422823 3.94323 0.167823 4.18173C-0.0871766 4.42023 -0.0526769 4.78173 0.278823 5.12523C0.978823 5.82523 1.67882 6.52523 2.37882 7.22523C2.72382 7.56873 3.01482 7.57623 3.35232 7.24173C4.07532 6.53523 4.78782 5.80773 5.50782 5.08473C5.77782 4.81323 5.85132 4.51923 5.58582 4.21023C5.38332 3.97323 5.05632 3.97623 4.76982 4.21023L4.75632 4.22373C4.73082 4.24473 4.70532 4.26423 4.68132 4.28823C4.65732 4.31223 4.64232 4.33623 4.62132 4.35873L3.44382 5.54523V0.673229C3.44382 0.295229 3.30132 0.0252288 2.88432 0.00122882C2.51532 -0.0197712 2.30532 0.229229 2.28882 0.683729Z" fill="var(--fill-0, white)"/>
</svg>
