<svg preserveAspectRatio="none" width="100%" height="100%" overflow="visible" style="display: block;" viewBox="0 0 7.66881 9.98375" fill="none" xmlns="http://www.w3.org/2000/svg">
<path id="Vector" d="M3.05176 0.911638V7.38764L1.47976 5.77564C1.02976 5.31564 0.563765 5.25764 0.223765 5.57564C-0.116235 5.89364 -0.0702359 6.37564 0.371764 6.83364C1.3051 7.76697 2.23843 8.70031 3.17176 9.63364C3.63176 10.0916 4.01976 10.1016 4.46976 9.65564C5.43376 8.71364 6.38377 7.74364 7.34377 6.77964C7.70377 6.41764 7.80176 6.02564 7.44776 5.61364C7.17776 5.29764 6.74176 5.30164 6.35976 5.61364L6.34176 5.63164C6.30776 5.65964 6.27376 5.68564 6.24176 5.71764C6.20976 5.74964 6.18976 5.78164 6.16176 5.81164L4.59176 7.39364V0.897638C4.59176 0.393638 4.40176 0.0336384 3.84576 0.00163843C3.35376 -0.0263616 3.07376 0.305638 3.05176 0.911638Z" fill="var(--fill-0, #0E4D80)"/>
</svg>
