<svg preserveAspectRatio="none" width="100%" height="100%" overflow="visible" style="display: block;" viewBox="0 0 9.65299 7.30086" fill="none" xmlns="http://www.w3.org/2000/svg">
<path id="Vector" d="M8.7721 2.91508H2.5141L4.0711 1.41508C4.5151 0.986077 4.5721 0.542076 4.2571 0.215076C3.9421 -0.111924 3.4741 -0.0669238 3.0391 0.356076C2.1291 1.23808 1.2291 2.12508 0.339096 3.01708C-0.104904 3.45508 -0.113904 3.82408 0.318096 4.25008C1.2421 5.17108 2.1811 6.07708 3.1141 6.99208C3.4621 7.33408 3.8401 7.42708 4.2391 7.09108C4.5391 6.83308 4.5391 6.41908 4.2391 6.05608H4.2211C4.19573 6.02273 4.1687 5.99069 4.1401 5.96008L4.0471 5.88508L2.5201 4.38508H8.7871C9.2731 4.38508 9.6211 4.20208 9.6511 3.67408C9.6811 3.20308 9.3541 2.93608 8.7721 2.91508Z" fill="var(--fill-0, #16D63D)"/>
</svg>
