<svg preserveAspectRatio="none" width="100%" height="100%" overflow="visible" style="display: block;" viewBox="0 0 12.6092 11.7389" fill="none" xmlns="http://www.w3.org/2000/svg">
<path id="Vector" d="M11.798 10.3513C12.278 10.3753 12.608 10.6513 12.608 11.0473C12.6025 11.1468 12.5768 11.2441 12.5323 11.3333C12.4879 11.4225 12.4257 11.5017 12.3496 11.566C12.2735 11.6304 12.185 11.6785 12.0897 11.7074C11.9943 11.7363 11.8941 11.7455 11.795 11.7343H2.27904C0.878039 11.7313 0.00203856 10.8793 0.00203856 9.5023C0.00203856 7.9333 0.00203856 6.3643 0.00203856 4.8043C-0.0162258 4.39841 0.0885798 3.99647 0.302716 3.65117C0.516852 3.30588 0.830324 3.03335 1.20204 2.8693C4.44348 1.20317 7.99532 0.227619 11.633 0.00429974C12.206 -0.0347003 12.56 0.1933 12.605 0.6193C12.65 1.0453 12.326 1.3273 11.744 1.3663C8.34366 1.58061 5.02143 2.47851 1.97604 4.0063C1.79502 4.07749 1.64194 4.20542 1.53972 4.37091C1.4375 4.5364 1.39165 4.73056 1.40904 4.9243C1.43304 6.3673 1.40904 7.8133 1.40904 9.2593C1.40904 10.2283 1.53204 10.3483 2.49204 10.3513H11.798Z" fill="var(--fill-0, #0E4D80)"/>
</svg>
