<svg preserveAspectRatio="none" width="100%" height="100%" overflow="visible" style="display: block;" viewBox="0 0 12.2196 12.375" fill="none" xmlns="http://www.w3.org/2000/svg">
<path id="Vector" d="M6.15698 0C4.93572 0.00513987 3.74334 0.371834 2.73023 1.05383C1.71712 1.73582 0.928676 2.70257 0.46434 3.83212C3.07858e-06 4.96167 -0.119423 6.20344 0.121126 7.40079C0.361674 8.59813 0.951423 9.69742 1.81598 10.56C2.38717 11.1364 3.06714 11.5937 3.81645 11.9053C4.56576 12.2168 5.36948 12.3765 6.18098 12.375C7.79847 12.3357 9.33626 11.6645 10.4649 10.5052C11.5936 9.34596 12.2235 7.79079 12.2195 6.17282C12.2156 4.55486 11.5782 3.00276 10.444 1.84898C9.30966 0.695195 7.76865 0.0314821 6.15098 0H6.15698ZM9.79898 10.125C8.84531 11.0348 7.57998 11.5456 6.26198 11.553H6.08198C4.61375 11.4965 3.22722 10.8625 2.22398 9.789C1.75597 9.29416 1.39087 8.71132 1.14986 8.07428C0.908851 7.43725 0.796723 6.7587 0.819981 6.078C0.936981 3.117 3.38798 0.762 6.24698 0.831C7.70076 0.871875 9.07921 1.48668 10.081 2.541C10.5577 3.03554 10.9316 3.61981 11.1808 4.25993C11.4301 4.90005 11.5498 5.58327 11.533 6.27C11.4868 7.73357 10.8634 9.11942 9.79898 10.125Z" fill="var(--fill-0, #0E4D80)"/>
</svg>
