<svg preserveAspectRatio="none" width="100%" height="100%" overflow="visible" style="display: block;" viewBox="0 0 30 29.997" fill="none" xmlns="http://www.w3.org/2000/svg">
<path id="Vector" d="M29.304 11.559H28.953C28.5001 11.5335 28.046 11.5395 27.594 11.577C26.832 11.658 26.43 11.385 26.289 10.677C26.1964 10.3269 26.0508 9.99298 25.857 9.687C25.7711 9.56366 25.7372 9.41152 25.7624 9.26338C25.7877 9.11523 25.8701 8.98294 25.992 8.895C26.535 8.373 27.048 7.851 27.492 7.41C27.936 6.969 27.927 6.726 27.492 6.288C26.23 5.02 24.966 3.757 23.7 2.499C23.268 2.07 23.04 2.076 22.587 2.523C22.425 2.682 22.266 2.841 22.107 3.003L22.074 3.036C21.756 3.36 21.423 3.693 21.084 4.008C20.9952 4.08414 20.8898 4.13844 20.7762 4.16657C20.6627 4.1947 20.5441 4.19588 20.43 4.17C19.977 4.002 19.53 3.813 19.086 3.612H19.053L18.63 3.429L18.447 3.348V2.493C18.447 1.911 18.447 1.317 18.447 0.726C18.447 0.135 18.267 0 17.7 0C15.9 0 14.1 0 12.3 0C11.739 0 11.577 0.168 11.568 0.735C11.568 1.362 11.55 2.103 11.568 2.835C11.5961 2.99909 11.5588 3.16767 11.464 3.30453C11.3692 3.44139 11.2245 3.53562 11.061 3.567C10.6384 3.68641 10.2308 3.85349 9.846 4.065C9.76607 4.12698 9.67435 4.17201 9.57643 4.19734C9.47851 4.22267 9.37645 4.22777 9.27649 4.21233C9.17654 4.19689 9.08078 4.16123 8.99507 4.10753C8.90936 4.05382 8.8355 3.98321 8.778 3.9C8.382 3.453 7.944 3.033 7.518 2.625L7.338 2.454C6.981 2.1 6.711 2.1 6.375 2.436C5.1 3.711 3.765 5.034 2.439 6.372C2.109 6.705 2.112 6.972 2.439 7.338C2.7 7.611 2.967 7.878 3.237 8.145L3.618 8.523C4.26 9.165 4.284 9.3 3.918 10.113C3.77563 10.4341 3.65339 10.7637 3.552 11.1C3.5235 11.2458 3.44002 11.3751 3.31885 11.4611C3.19767 11.5471 3.04807 11.5832 2.901 11.562C2.187 11.544 1.467 11.562 0.801 11.562C0.168 11.565 0 11.724 0 12.342C0 14.114 0 15.881 0 17.643C0 18.288 0.156 18.438 0.828 18.444C1.329 18.444 1.833 18.444 2.328 18.444H3.336L3.417 18.633L3.561 18.99L3.603 19.092C3.774 19.515 3.936 19.914 4.131 20.292C4.2155 20.4231 4.24731 20.5813 4.22005 20.7349C4.19279 20.8884 4.10846 21.026 3.984 21.12C3.471 21.609 2.985 22.101 2.484 22.605C2.1 23.031 2.1 23.283 2.499 23.7C3.769 24.978 5.044 26.253 6.324 27.525C6.729 27.927 6.975 27.918 7.422 27.48C7.869 27.042 8.379 26.544 8.844 26.049C8.90567 25.9711 8.98285 25.9069 9.07064 25.8604C9.15843 25.8139 9.25493 25.7862 9.354 25.779C9.48404 25.7839 9.61084 25.821 9.723 25.887C10.1444 26.108 10.5853 26.2898 11.04 26.43C11.2035 26.4587 11.3494 26.5499 11.4468 26.6843C11.5442 26.8187 11.5855 26.9857 11.562 27.15C11.541 27.75 11.562 28.35 11.562 28.95V29.199C11.562 29.832 11.73 29.994 12.339 29.997C14.139 29.997 15.906 29.997 17.694 29.997C18.279 29.997 18.441 29.829 18.447 29.232C18.453 28.635 18.447 28.074 18.447 27.501V26.67L19.047 26.406C19.53 26.193 19.989 25.989 20.463 25.806C20.5692 25.7847 20.6789 25.7889 20.7831 25.8181C20.8874 25.8473 20.9833 25.9007 21.063 25.974C21.387 26.274 21.714 26.607 22.002 26.898C22.2 27.099 22.398 27.3 22.602 27.498C23.034 27.9 23.274 27.9 23.7 27.504C24.978 26.232 26.252 24.957 27.522 23.679C27.924 23.274 27.921 23.022 27.522 22.599C27.342 22.416 27.159 22.233 26.976 22.053L26.919 21.996C26.619 21.696 26.301 21.396 26.001 21.057C25.9215 20.9694 25.8642 20.8641 25.8339 20.7497C25.8036 20.6354 25.8012 20.5154 25.827 20.4C26.004 19.932 26.208 19.476 26.403 19.035L26.667 18.435H27.495C28.068 18.435 28.647 18.435 29.226 18.435C29.805 18.435 30 18.267 30 17.7C30 15.9 30 14.1 30 12.3C30 11.739 29.832 11.571 29.304 11.559ZM28.839 17.316H26.469C25.827 17.316 25.737 17.421 25.524 18.009C25.2332 18.8264 24.8987 19.6275 24.522 20.409C24.318 20.835 24.354 21.102 24.657 21.393C25.023 21.741 25.386 22.095 25.746 22.446L26.427 23.1L23.067 26.454L22.5 25.839C22.155 25.476 21.795 25.101 21.444 24.711C21.093 24.321 20.844 24.321 20.382 24.546C19.5822 24.9247 18.7631 25.2612 17.928 25.554C17.484 25.719 17.328 25.941 17.328 26.352C17.328 26.862 17.328 27.363 17.328 27.891V28.842H12.684V26.469C12.684 25.827 12.579 25.74 11.991 25.524C11.1741 25.2332 10.373 24.8997 9.591 24.525C9.165 24.318 8.898 24.354 8.61 24.657C8.235 25.05 7.857 25.437 7.482 25.824L6.882 26.424L3.546 23.07L4.146 22.512C4.53 22.143 4.911 21.783 5.298 21.429C5.685 21.075 5.688 20.829 5.463 20.37C5.08488 19.5699 4.74843 18.7508 4.455 17.916C4.317 17.544 4.134 17.298 3.66 17.316C3.186 17.334 2.655 17.316 2.127 17.316H1.176V12.684H3.528C4.173 12.684 4.263 12.579 4.473 11.994C4.76467 11.177 5.09913 10.3759 5.475 9.594C5.682 9.168 5.646 8.901 5.343 8.613C4.969 8.253 4.596 7.891 4.224 7.527L3.573 6.9L6.933 3.552L7.491 4.152C7.845 4.524 8.211 4.908 8.568 5.307C8.883 5.655 9.168 5.7 9.63 5.472C10.4092 5.09376 11.2107 4.76315 12.03 4.482C12.531 4.305 12.705 4.077 12.687 3.618C12.666 3.087 12.687 2.556 12.687 2.04C12.687 1.848 12.687 1.665 12.687 1.482V1.182H17.316V2.028C17.316 2.571 17.316 3.084 17.316 3.612C17.298 4.071 17.478 4.314 17.958 4.488C18.7888 4.77369 19.604 5.10315 20.4 5.475C20.829 5.682 21.096 5.646 21.384 5.346C21.672 5.046 22.002 4.701 22.308 4.383L23.1 3.573L26.454 6.939L25.854 7.485C25.488 7.827 25.113 8.175 24.75 8.532C24.27 9 24.282 9.069 24.564 9.675C24.951 10.515 25.266 11.286 25.524 12.033C25.695 12.531 25.956 12.717 26.424 12.696C26.892 12.675 27.432 12.678 27.96 12.696H28.815L28.839 17.316Z" fill="var(--fill-0, #0E4D80)"/>
</svg>
