<svg preserveAspectRatio="none" width="100%" height="100%" overflow="visible" style="display: block;" viewBox="0 0 9.2 19.8" fill="none" xmlns="http://www.w3.org/2000/svg">
<path id="Vector" fill-rule="evenodd" clip-rule="evenodd" d="M2.028 9.97801V19.55C2.028 19.6163 2.05434 19.6799 2.10122 19.7268C2.14811 19.7737 2.2117 19.8 2.278 19.8H5.832C5.8983 19.8 5.96189 19.7737 6.00878 19.7268C6.05566 19.6799 6.082 19.6163 6.082 19.55V9.82201H8.658C8.72045 9.82221 8.78068 9.79884 8.82665 9.75658C8.87263 9.71431 8.90096 9.65625 8.906 9.59401L9.154 6.66201C9.15675 6.6277 9.15239 6.5932 9.1412 6.56065C9.13 6.52811 9.1122 6.49823 9.08892 6.47289C9.06564 6.44754 9.03738 6.42727 9.0059 6.41336C8.97443 6.39944 8.94041 6.39217 8.906 6.392H6.082V4.312C6.082 4.07808 6.17493 3.85374 6.34033 3.68834C6.50574 3.52293 6.73008 3.43 6.964 3.43H8.95C9.0163 3.43 9.07989 3.40367 9.12678 3.35678C9.17366 3.3099 9.2 3.24631 9.2 3.18V0.250005C9.2 0.183701 9.17366 0.120112 9.12678 0.0732284C9.07989 0.0263443 9.0163 5.04813e-06 8.95 5.04813e-06H5.6C5.1312 -0.000783733 4.66685 0.0908715 4.23351 0.269727C3.80017 0.448582 3.40635 0.711126 3.07458 1.04234C2.74281 1.37355 2.4796 1.76693 2.30002 2.19997C2.12043 2.63301 2.028 3.09721 2.028 3.566V6.392H0.25C0.183696 6.392 0.120107 6.41834 0.0732231 6.46523C0.026339 6.51211 0 6.5757 0 6.64201V9.57201C0 9.63831 0.026339 9.7019 0.0732231 9.74878C0.120107 9.79567 0.183696 9.82201 0.25 9.82201H2.028V9.97801Z" fill="var(--fill-0, #1A1A1A)"/>
</svg>
