<svg preserveAspectRatio="none" width="100%" height="100%" overflow="visible" style="display: block;" viewBox="0 0 6.294 6.294" fill="none" xmlns="http://www.w3.org/2000/svg">
<path id="Vector" d="M2.28676e-05 3.159C-0.0023523 2.53582 0.180347 1.92596 0.524962 1.40673C0.869578 0.887507 1.36059 0.482285 1.93577 0.242431C2.51094 0.00257768 3.14438 -0.0611068 3.75579 0.0594494C4.36721 0.180006 4.92906 0.479375 5.37014 0.91961C5.81121 1.35985 6.11166 1.92113 6.23338 2.5323C6.35511 3.14348 6.29263 3.77704 6.05388 4.35268C5.81513 4.92831 5.41085 5.4201 4.89228 5.76571C4.37371 6.11131 3.7642 6.29518 3.14102 6.294C2.30926 6.29321 1.5117 5.96285 0.922992 5.37527C0.334284 4.78768 0.0024035 3.99076 2.28676e-05 3.159ZM3.12602 5.325C3.55579 5.32852 3.97697 5.20464 4.33639 4.96899C4.69581 4.73335 4.97736 4.3965 5.1455 4.00098C5.31364 3.60545 5.36083 3.16898 5.28112 2.74666C5.2014 2.32433 4.99835 1.93509 4.69761 1.62807C4.39686 1.32105 4.01189 1.11001 3.5913 1.02159C3.17072 0.933177 2.73336 0.971346 2.33445 1.13128C1.93554 1.29122 1.59295 1.56576 1.34993 1.92024C1.10692 2.27472 0.974372 2.69325 0.969023 3.123C0.963423 3.70093 1.18745 4.25745 1.59188 4.67032C1.99632 5.0832 2.5481 5.31866 3.12602 5.325Z" fill="var(--fill-0, #0E4D80)"/>
</svg>
