<svg preserveAspectRatio="none" width="100%" height="100%" overflow="visible" style="display: block;" viewBox="0 0 19.8 19.8" fill="none" xmlns="http://www.w3.org/2000/svg">
<path id="Vector" d="M16.3 4.612C16.3 4.83945 16.2326 5.06179 16.1062 5.25091C15.9798 5.44002 15.8002 5.58742 15.5901 5.67446C15.38 5.7615 15.1487 5.78428 14.9256 5.7399C14.7026 5.69553 14.4977 5.586 14.3368 5.42517C14.176 5.26434 14.0665 5.05943 14.0221 4.83635C13.9777 4.61328 14.0005 4.38205 14.0875 4.17191C14.1746 3.96178 14.322 3.78217 14.5111 3.65581C14.7002 3.52945 14.9226 3.462 15.15 3.462C15.3011 3.46174 15.4508 3.4913 15.5904 3.549C15.73 3.6067 15.8569 3.6914 15.9638 3.79824C16.0706 3.90508 16.1553 4.03196 16.213 4.1716C16.2707 4.31125 16.3003 4.46091 16.3 4.612ZM14.86 9.76C14.8604 10.7146 14.5777 11.6478 14.0476 12.4417C13.5176 13.2356 12.764 13.8545 11.8822 14.2201C11.0004 14.5856 10.03 14.6815 9.09372 14.4955C8.15744 14.3095 7.29734 13.8501 6.62221 13.1752C5.94708 12.5004 5.48725 11.6404 5.30088 10.7042C5.1145 9.76803 5.20996 8.79758 5.57517 7.91563C5.94038 7.03368 6.55893 6.27984 7.35261 5.74947C8.14628 5.21909 9.07942 4.936 10.034 4.936C11.3131 4.93759 12.5394 5.44627 13.444 6.35055C14.3487 7.25482 14.8579 8.4809 14.86 9.76ZM13.126 9.76C13.126 9.14846 12.9447 8.55065 12.6049 8.04218C12.2652 7.5337 11.7822 7.13739 11.2173 6.90336C10.6523 6.66934 10.0306 6.60811 9.43078 6.72741C8.83099 6.84672 8.28005 7.1412 7.84763 7.57363C7.4152 8.00605 7.12072 8.55699 7.00141 9.15678C6.88211 9.75657 6.94334 10.3783 7.17736 10.9433C7.41139 11.5082 7.8077 11.9912 8.31618 12.3309C8.82465 12.6707 9.42246 12.852 10.034 12.852C10.8539 12.8515 11.64 12.5255 12.2198 11.9458C12.7995 11.366 13.1255 10.5799 13.126 9.76ZM19.8 5.884C19.8 4.32347 19.1801 2.82685 18.0766 1.72338C16.9732 0.61992 15.4765 0 13.916 0H5.884C4.32347 0 2.82685 0.61992 1.72338 1.72338C0.61992 2.82685 0 4.32347 0 5.884V13.916C0 15.4765 0.61992 16.9732 1.72338 18.0766C2.82685 19.1801 4.32347 19.8 5.884 19.8H13.916C15.4765 19.8 16.9732 19.1801 18.0766 18.0766C19.1801 16.9732 19.8 15.4765 19.8 13.916V5.884ZM17.868 13.826C17.868 14.898 17.4421 15.9261 16.6841 16.6841C15.9261 17.4421 14.898 17.868 13.826 17.868H5.974C4.90199 17.868 3.8739 17.4421 3.11587 16.6841C2.35785 15.9261 1.932 14.898 1.932 13.826V5.974C1.932 4.90199 2.35785 3.8739 3.11587 3.11587C3.8739 2.35785 4.90199 1.932 5.974 1.932H13.826C14.898 1.932 15.9261 2.35785 16.6841 3.11587C17.4421 3.8739 17.868 4.90199 17.868 5.974V13.826Z" fill="var(--fill-0, #1A1A1A)"/>
</svg>
