<svg preserveAspectRatio="none" width="100%" height="100%" overflow="visible" style="display: block;" viewBox="0 0 19.844 19.8" fill="none" xmlns="http://www.w3.org/2000/svg">
<path id="Vector" d="M0.322001 6.572H4.444V19.8H0.322001V6.572ZM2.386 8.39706e-07C2.85751 0.000396568 3.31832 0.140602 3.71014 0.402889C4.10197 0.665175 4.40722 1.03776 4.58729 1.47353C4.76737 1.9093 4.81418 2.38868 4.7218 2.85106C4.62943 3.31343 4.40202 3.73803 4.06833 4.07116C3.73464 4.40428 3.30966 4.63098 2.84713 4.72258C2.38461 4.81418 1.9053 4.76657 1.46984 4.58576C1.03437 4.40496 0.662295 4.09908 0.400666 3.70682C0.139038 3.31455 -0.000394558 2.85351 8.38608e-07 2.382C0.000263372 2.06893 0.0621874 1.75898 0.182237 1.46984C0.302287 1.1807 0.478112 0.918033 0.699672 0.696844C0.921233 0.475655 1.18419 0.300271 1.47353 0.180706C1.76287 0.0611419 2.07293 -0.000261914 2.386 8.39706e-07ZM7.024 19.8H11.134V13.258C11.134 11.532 11.46 9.858 13.6 9.858C15.706 9.858 15.736 11.83 15.736 13.366V19.8H19.844V12.546C19.844 8.984 19.078 6.246 14.914 6.246C12.914 6.246 11.572 7.342 11.022 8.382H10.968V6.582H7.024V19.8Z" fill="var(--fill-0, #1A1A1A)"/>
</svg>
