<svg preserveAspectRatio="none" width="100%" height="100%" overflow="visible" style="display: block;" viewBox="0 0 13 27.9783" fill="none" xmlns="http://www.w3.org/2000/svg">
<path id="Vector" fill-rule="evenodd" clip-rule="evenodd" d="M2.86565 14.0994V27.625C2.86565 27.7187 2.90287 27.8085 2.96912 27.8748C3.03537 27.941 3.12522 27.9783 3.21891 27.9783H8.24087C8.33456 27.9783 8.42441 27.941 8.49066 27.8748C8.55691 27.8085 8.59413 27.7187 8.59413 27.625V13.8789H12.2341C12.3224 13.8792 12.4075 13.8462 12.4724 13.7865C12.5374 13.7267 12.5774 13.6447 12.5846 13.5567L12.935 9.4137C12.9389 9.36523 12.9327 9.31647 12.9169 9.27049C12.9011 9.22451 12.8759 9.18228 12.843 9.14647C12.8101 9.11065 12.7702 9.08202 12.7257 9.06235C12.6813 9.04269 12.6332 9.03241 12.5846 9.03218H8.59413V6.09305C8.59413 5.76251 8.72544 5.44551 8.95916 5.21178C9.19289 4.97805 9.50989 4.84675 9.84043 4.84675H12.6467C12.7404 4.84675 12.8303 4.80953 12.8965 4.74328C12.9628 4.67703 13 4.58718 13 4.49349V0.353268C13 0.259577 12.9628 0.169724 12.8965 0.103475C12.8303 0.0372256 12.7404 7.13323e-06 12.6467 7.13323e-06H7.91304C7.25061 -0.00110745 6.59446 0.128405 5.98213 0.381135C5.3698 0.633865 4.81332 1.00485 4.34451 1.47287C3.87571 1.94089 3.50378 2.49675 3.25003 3.10865C2.99627 3.72055 2.86565 4.37649 2.86565 5.03892V9.03218H0.353261C0.25957 9.03218 0.169717 9.0694 0.103467 9.13565C0.0372182 9.2019 0 9.29175 0 9.38544V13.5257C0 13.6194 0.0372182 13.7092 0.103467 13.7755C0.169717 13.8417 0.25957 13.8789 0.353261 13.8789H2.86565V14.0994Z" fill="var(--fill-0, white)"/>
</svg>
