<svg preserveAspectRatio="none" width="100%" height="100%" overflow="visible" style="display: block;" viewBox="0 0 29.9823 29.9996" fill="none" xmlns="http://www.w3.org/2000/svg">
<path id="Vector" d="M5.47514 12.6C3.87614 11.433 3.65414 9.879 3.92414 8.193C4.20014 6.459 5.37914 5.493 7.38614 5.316C7.24795 5.0089 7.12677 4.69442 7.02314 4.374C7.00255 4.2934 6.99967 4.20929 7.01469 4.12746C7.02971 4.04564 7.06227 3.96804 7.11014 3.9C7.80914 3.168 8.52914 2.451 9.26114 1.749C9.3216 1.70672 9.39154 1.67996 9.46478 1.67106C9.53802 1.66217 9.61232 1.67142 9.68114 1.698C10.4971 2.499 11.3401 2.475 12.2971 1.938C12.6331 1.752 12.8371 1.605 12.8971 1.221C12.9571 0.837 13.0591 0.432 13.1461 0.021C13.3081 0.021 13.4461 0 13.5811 0H16.8271C16.9321 0.486 17.0521 0.939 17.1271 1.395C17.133 1.51074 17.178 1.62104 17.2549 1.70774C17.3318 1.79445 17.4359 1.85238 17.5501 1.872C17.7805 1.91784 18.0016 2.00201 18.2041 2.121C18.8041 2.559 19.3081 2.406 19.8631 1.977C20.4931 1.5 20.5231 1.53 21.0871 2.1C21.6511 2.67 22.2001 3.24 22.7791 3.786C22.8358 3.82321 22.8844 3.87132 22.9222 3.92754C22.9601 3.98376 22.9863 4.04695 22.9994 4.11342C23.0126 4.17989 23.0123 4.24831 22.9987 4.31469C22.9851 4.38106 22.9584 4.44406 22.9201 4.5C22.7907 4.7573 22.6785 5.02288 22.5841 5.295C24.4711 5.418 25.6741 6.363 26.0341 8.202C26.3611 9.888 26.0791 11.433 24.4831 12.615L26.0251 13.023C26.0871 13.0311 26.1483 13.0441 26.2081 13.062C27.0361 13.518 27.7471 13.236 28.5001 12.807C28.8991 12.582 29.4271 12.585 29.9521 12.474C29.9671 12.774 29.9791 12.912 29.9791 13.074C29.9791 15.117 29.9791 17.163 29.9791 19.209C29.9934 19.3513 29.9594 19.4943 29.8827 19.6151C29.806 19.7358 29.691 19.8274 29.5561 19.875C26.9281 21.171 24.2971 22.5 21.6571 23.805C21.5442 23.8468 21.4456 23.9202 21.3732 24.0165C21.3009 24.1128 21.2578 24.2279 21.2491 24.348C21.2171 24.6461 21.0916 24.9265 20.8906 25.149C20.6896 25.3715 20.4235 25.5248 20.1301 25.587C20.0041 25.62 19.8301 25.734 19.8001 25.836C19.6561 26.61 19.1431 26.961 18.4021 27.111C18.2671 27.855 17.8861 28.386 17.0791 28.524C17.0011 28.524 16.9231 28.695 16.8901 28.803C16.5211 29.979 15.3121 30.375 14.3821 29.598C14.2755 29.4836 14.1362 29.4049 13.9831 29.3726C13.8301 29.3404 13.6708 29.3563 13.5271 29.418C12.6121 29.718 11.8951 29.202 11.5681 28.068C10.8661 27.924 10.3411 27.576 10.1851 26.808C10.1671 26.712 10.0141 26.598 9.90314 26.568C9.621 26.4998 9.36263 26.3564 9.15555 26.153C8.94846 25.9496 8.8004 25.6939 8.72714 25.413C8.70044 25.3451 8.66002 25.2834 8.60841 25.2317C8.55679 25.1801 8.49508 25.1397 8.42714 25.113C8.17224 25.0601 7.93697 24.9376 7.7474 24.7591C7.55784 24.5807 7.42138 24.3532 7.35314 24.102C7.31536 23.9469 7.24202 23.8028 7.13892 23.681C7.03583 23.5591 6.90581 23.4629 6.75914 23.4C6.45914 23.238 6.15914 23.052 5.85914 22.863C5.58614 23.463 5.05814 23.295 4.65914 23.163C3.17414 22.719 1.71614 22.2 0.258142 21.714C0.195861 21.6868 0.140711 21.6456 0.0969972 21.5935C0.0532835 21.5415 0.0221893 21.48 0.00614213 21.414C-0.00285787 18.168 -0.00285787 14.937 0.0121421 11.7C0.0121421 11.7 0.0301421 11.676 0.0661421 11.628C0.852142 11.607 1.67414 11.469 2.38814 12.066C2.62514 12.264 2.95814 12.348 3.18614 12.549C3.89714 13.176 4.58414 12.9 5.47514 12.6ZM29.0131 13.62C28.7671 13.743 28.6171 13.815 28.4671 13.893C25.7971 15.3 23.1391 16.68 20.4901 18.102C20.2393 18.241 19.9625 18.3266 19.677 18.3535C19.3914 18.3803 19.1035 18.3478 18.8311 18.258C17.9641 18 17.0971 17.772 16.2271 17.514C15.7155 17.3529 15.1616 17.3937 14.6791 17.628C13.7941 18.054 12.9181 18.498 12.0481 18.948C11.9534 18.9859 11.8679 19.0438 11.7974 19.1176C11.727 19.1915 11.6733 19.2797 11.64 19.3762C11.6067 19.4727 11.5946 19.5752 11.6044 19.6768C11.6143 19.7784 11.6459 19.8767 11.6971 19.965C11.8861 20.31 12.2971 20.388 12.7051 20.145C13.2061 19.845 13.6981 19.545 14.2051 19.245C15.2401 18.645 15.9841 18.699 16.8841 19.506C18.1051 20.598 19.3261 21.687 20.5291 22.806C20.6226 22.916 20.7538 22.9872 20.897 23.0055C21.0401 23.0238 21.185 22.9879 21.3031 22.905C23.4841 21.798 25.6471 20.655 27.8731 19.644C28.7911 19.227 29.1301 18.744 29.0521 17.73C28.9351 16.41 29.0131 15.066 29.0131 13.62ZM7.59014 22.752C7.92614 22.389 8.23514 22.014 8.59214 21.69C8.83819 21.4347 9.17257 21.2831 9.52676 21.2664C9.88094 21.2497 10.2281 21.369 10.4971 21.6C10.7971 21.879 10.8811 22.383 11.1721 22.674C11.4631 22.965 12.0331 23.037 12.2221 23.358C12.4943 23.8495 12.8999 24.2541 13.3921 24.525C13.7101 24.702 13.7701 25.29 14.0581 25.581C14.4005 25.8558 14.7753 26.0875 15.1741 26.271C15.1981 26.271 15.2041 26.325 15.2251 26.346C15.6661 26.715 16.0921 27.105 16.5511 27.447C16.6061 27.4928 16.6703 27.5263 16.7394 27.5451C16.8084 27.5639 16.8807 27.5675 16.9513 27.5559C17.0219 27.5442 17.0892 27.5174 17.1485 27.4774C17.2078 27.4374 17.2579 27.3851 17.2951 27.324C17.4931 27.054 17.3671 26.823 17.1601 26.622C17.0821 26.547 16.9891 26.484 16.9051 26.412L14.6701 24.537L15.2971 23.817L17.6011 25.734C17.6971 25.815 17.7901 25.899 17.9011 25.971C17.957 26.0268 18.0243 26.0698 18.0984 26.0971C18.1725 26.1243 18.2517 26.1352 18.3304 26.1289C18.4091 26.1227 18.4855 26.0994 18.5543 26.0607C18.6232 26.0221 18.6828 25.9689 18.7291 25.905C18.9571 25.605 18.8191 25.35 18.5641 25.137L16.1341 23.1L16.7491 22.353L19.2631 24.453C19.5631 24.69 19.8631 24.753 20.1451 24.486C20.4271 24.219 20.2801 23.886 20.0071 23.643C18.7291 22.5 17.4571 21.342 16.1761 20.199C15.6901 19.767 15.2971 19.74 14.7271 20.07C14.1571 20.4 13.6381 20.742 13.0771 21.051C12.8926 21.1616 12.6876 21.2339 12.4745 21.2635C12.2614 21.2932 12.0445 21.2796 11.8367 21.2236C11.629 21.1676 11.4347 21.0704 11.2653 20.9376C11.096 20.8049 10.9551 20.6394 10.8511 20.451C10.7393 20.2621 10.666 20.0528 10.6357 19.8353C10.6053 19.6179 10.6184 19.3965 10.6742 19.1842C10.73 18.9718 10.8274 18.7726 10.9608 18.5982C11.0942 18.4238 11.2608 18.2775 11.4511 18.168C12.1141 17.793 12.8101 17.472 13.4911 17.127C13.6051 17.067 13.7161 16.995 13.8271 16.929C13.2739 16.6998 12.6894 16.5552 12.0931 16.5C10.4971 16.38 9.03314 16.995 7.49714 17.271C7.41914 17.271 7.32914 17.415 7.30214 17.505C6.89114 18.942 6.48614 20.379 6.06914 21.846L7.59014 22.752ZM10.1971 15.6C11.1121 15.6 12.0181 15.468 12.8671 15.63C14.2681 15.9 15.6331 16.356 17.0101 16.737C17.7751 16.95 18.5371 17.175 19.3021 17.394C19.6651 17.496 19.8691 17.424 19.8451 16.983C19.8211 16.542 19.8451 16.083 19.8451 15.624C19.8675 15.2594 19.7513 14.8999 19.5199 14.6173C19.2885 14.3347 18.9589 14.15 18.5971 14.1C17.8291 13.896 17.0581 13.71 16.2901 13.5C16.1761 13.47 15.9901 13.413 15.9901 13.356C15.9427 12.9226 15.9356 12.4857 15.9691 12.051C15.9871 11.904 16.2271 11.784 16.3531 11.64C16.6261 11.325 16.9951 11.04 17.1451 10.683C17.3697 10.1783 17.4752 9.62876 17.4534 9.0768C17.4315 8.52485 17.2829 7.98533 17.0191 7.5C16.2751 6.156 14.5231 5.943 13.3501 6.927C12.2971 7.8 12.2131 10.722 13.4401 11.49C13.6693 11.6142 13.8518 11.8095 13.96 12.0466C14.0682 12.2837 14.0964 12.5495 14.0401 12.804C14.0296 12.8977 14.0296 12.9923 14.0401 13.086C14.0671 13.347 13.9741 13.464 13.6981 13.527C12.8911 13.704 12.0931 13.917 11.2981 14.127C10.5391 14.334 10.1971 14.799 10.1971 15.6ZM20.0971 13.884C20.9521 14.73 20.7781 15.78 20.8111 16.845L26.0971 14.046C25.5271 13.899 25.1131 13.782 24.6931 13.683C23.6971 13.449 23.6971 13.452 23.6971 12.408C23.6784 12.2574 23.706 12.1047 23.7762 11.9702C23.8464 11.8357 23.9559 11.7257 24.0901 11.655C24.3619 11.5 24.5937 11.2836 24.7672 11.0232C24.9406 10.7628 25.0509 10.4655 25.0891 10.155C25.1701 9.55171 25.1701 8.94029 25.0891 8.337C25.0211 7.88083 24.8222 7.45418 24.5166 7.10874C24.2109 6.7633 23.8117 6.51389 23.3672 6.3907C22.9228 6.26752 22.4521 6.27586 22.0123 6.41471C21.5725 6.55355 21.1823 6.81695 20.8891 7.173C20.2891 7.83 20.3401 8.625 20.3251 9.426C20.2857 9.89499 20.3794 10.3656 20.5954 10.7838C20.8113 11.2019 21.1409 11.5507 21.5461 11.79C21.7651 11.925 21.8851 13.29 21.6961 13.446C21.6153 13.4898 21.5266 13.5174 21.4351 13.527L20.0971 13.884ZM9.01214 15.93L9.70814 13.83C9.60314 13.8 9.40814 13.737 9.19214 13.686C8.21714 13.461 8.23214 13.461 8.21114 12.441C8.18907 12.2826 8.21641 12.1213 8.28943 11.979C8.36245 11.8367 8.47759 11.7204 8.61914 11.646C8.88256 11.4966 9.10788 11.2884 9.27753 11.0376C9.44718 10.7867 9.55657 10.5001 9.59714 10.2C9.67408 9.61307 9.68515 9.01939 9.63014 8.43C9.55845 7.83751 9.27044 7.29237 8.82139 6.89925C8.37234 6.50613 7.79391 6.29272 7.19714 6.3C6.59919 6.31279 6.02818 6.55118 5.59864 6.96737C5.1691 7.38355 4.9128 7.94675 4.88114 8.544C4.85414 8.916 4.85714 9.291 4.86314 9.666C4.85729 10.08 4.95864 10.4885 5.15735 10.8517C5.35606 11.215 5.64536 11.5206 5.99714 11.739C6.10814 11.811 6.26414 11.922 6.26714 12.021C6.32876 12.4672 6.31456 12.9206 6.22514 13.362C6.17414 13.533 5.68814 13.569 5.40014 13.662C5.34996 13.6837 5.30177 13.7098 5.25614 13.74C5.78714 14.04 6.26714 14.367 6.78314 14.619C7.42214 14.919 7.92614 15.294 7.73714 16.119C7.73714 16.119 7.73714 16.149 7.77314 16.194L9.01214 15.93ZM20.8501 12.576C20.7361 12.4708 20.6298 12.3575 20.5321 12.237C20.2021 11.772 19.7731 11.337 19.5781 10.824C19.2072 9.75645 19.1998 8.59618 19.5571 7.524C19.6169 7.34348 19.6094 7.14746 19.5361 6.972C17.6311 3.648 12.6841 3.507 10.5871 6.708C10.3741 7.032 10.2361 7.323 10.4371 7.734C10.5633 8.05313 10.6295 8.39284 10.6321 8.736C10.7431 10.128 10.4971 11.4 9.32714 12.348C9.24637 12.4387 9.17779 12.5395 9.12314 12.648C9.70514 12.798 10.2241 12.948 10.7521 13.053C10.9919 13.0995 11.2384 13.0995 11.4781 13.053C11.8921 12.978 12.2971 12.858 12.7021 12.753C12.8136 12.712 12.9211 12.6608 13.0231 12.6C12.9713 12.4799 12.9026 12.3677 12.8191 12.267C12.4249 11.9343 12.1118 11.516 11.9039 11.0439C11.6959 10.5718 11.5985 10.0584 11.6191 9.543C11.6191 9.261 11.6191 8.979 11.6191 8.7C11.6194 7.92793 11.8857 7.17954 12.3733 6.58092C12.8609 5.9823 13.5399 5.57005 14.296 5.41362C15.0521 5.2572 15.8389 5.36616 16.524 5.72215C17.2091 6.07815 17.7506 6.65941 18.0571 7.368C18.4111 8.19139 18.5088 9.10229 18.3376 9.98201C18.1663 10.8617 17.7341 11.6695 17.0971 12.3C16.9171 12.474 16.8331 12.6 17.1571 12.729C17.7476 12.9701 18.3831 13.0812 19.0203 13.0548C19.6575 13.0284 20.2816 12.8651 20.8501 12.576ZM9.67214 6.315C10.9561 4.428 12.7321 3.396 14.9911 3.396C17.2501 3.396 19.0141 4.437 20.2921 6.282C20.6371 6.063 21.0301 5.925 21.2431 5.649C21.5068 5.23628 21.726 4.79684 21.8971 4.338C21.8971 4.314 21.8641 4.251 21.8341 4.221C21.3571 3.735 20.8771 3.255 20.3971 2.772C20.0041 3.027 19.6591 3.24 19.3321 3.477C19.2503 3.54408 19.1485 3.58222 19.0427 3.58548C18.9369 3.58873 18.833 3.55692 18.7471 3.495C18.2276 3.18748 17.6738 2.94181 17.0971 2.763C16.8611 2.73874 16.6413 2.63176 16.4766 2.461C16.3119 2.29025 16.2129 2.06673 16.1971 1.83C16.0441 0.963 16.0081 0.969 15.1261 0.969C13.9021 0.969 13.8931 0.969 13.6711 2.184C13.6585 2.29632 13.6104 2.40169 13.5338 2.48478C13.4572 2.56788 13.3561 2.62435 13.2451 2.646C12.5461 2.901 11.8741 3.228 11.1811 3.495C11.0088 3.55277 10.8208 3.54203 10.6561 3.465C10.2871 3.27 9.94814 3.021 9.54914 2.763C9.08114 3.243 8.62214 3.711 8.16914 4.179C8.12714 4.221 8.05814 4.299 8.07314 4.329C8.25179 4.79774 8.47585 5.24789 8.74214 5.673C8.94914 5.943 9.32714 6.081 9.67214 6.315ZM3.01514 21.6C3.06014 21.462 3.08714 21.39 3.10514 21.3C3.64514 19.155 4.17914 17.01 4.72814 14.868C4.79714 14.598 4.67414 14.508 4.48214 14.4C3.49514 13.83 2.51714 13.251 1.52714 12.687C1.34539 12.6082 1.15654 12.5469 0.963142 12.504V14.004C0.963142 16.173 0.963142 18.342 0.963142 20.514C0.963142 20.667 1.04714 20.916 1.15514 20.958C1.75214 21.21 2.36414 21.393 3.01514 21.6ZM5.64314 15.189C5.08814 17.418 4.53014 19.647 3.96314 21.915L4.92314 22.233C4.97714 22.089 5.02214 21.993 5.05214 21.891C5.53814 20.187 6.02314 18.487 6.50714 16.791C6.82514 15.672 6.82514 15.672 5.75714 15.198C5.74514 15.189 5.72714 15.195 5.64314 15.198V15.189ZM9.70214 22.242C9.54314 22.275 9.44414 22.266 9.40214 22.311C9.01251 22.6591 8.64669 23.0329 8.30714 23.43C8.27747 23.5335 8.27457 23.6429 8.2987 23.7478C8.32284 23.8528 8.37323 23.9498 8.44514 24.03C8.53799 24.0852 8.64316 24.1163 8.75109 24.1205C8.85903 24.1247 8.96629 24.1018 9.06314 24.054C9.41874 23.778 9.73735 23.4573 10.0111 23.1C10.0573 23.0159 10.0852 22.923 10.093 22.8273C10.1007 22.7317 10.0882 22.6355 10.0561 22.545C10.0051 22.41 9.80114 22.323 9.70214 22.242ZM13.0921 25.647C12.9841 25.506 12.9001 25.29 12.7651 25.251C12.6664 25.2189 12.5621 25.2077 12.4588 25.218C12.3556 25.2284 12.2556 25.26 12.1651 25.311C11.836 25.5715 11.5344 25.865 11.2651 26.187C11.2148 26.2371 11.1756 26.2974 11.1503 26.3638C11.125 26.4302 11.1142 26.5012 11.1184 26.5722C11.1227 26.6431 11.142 26.7123 11.175 26.7752C11.2081 26.8381 11.2541 26.8933 11.3101 26.937C11.3562 26.9857 11.4119 27.0241 11.4737 27.05C11.5355 27.0758 11.602 27.0884 11.669 27.087C11.7359 27.0856 11.8019 27.0702 11.8625 27.0418C11.9232 27.0134 11.9772 26.9726 12.0211 26.922C12.3211 26.646 12.6001 26.361 12.8731 26.064C12.9637 25.935 13.0373 25.7948 13.0921 25.647ZM13.1251 28.5C13.1521 28.5 13.2391 28.5 13.2721 28.476C13.6853 28.0909 14.0778 27.6844 14.4481 27.258C14.5141 27.177 14.3851 26.814 14.2501 26.721C14.1601 26.6729 14.0597 26.6478 13.9576 26.6478C13.8556 26.6478 13.7551 26.6729 13.6651 26.721C13.3015 27.0091 12.9715 27.3372 12.6811 27.699C12.6254 27.777 12.5928 27.8692 12.5873 27.9649C12.5818 28.0606 12.6036 28.1559 12.6501 28.2398C12.6965 28.3236 12.7658 28.3926 12.8499 28.4387C12.934 28.4847 13.0295 28.506 13.1251 28.5ZM10.2301 25.605C10.2811 25.605 10.3981 25.605 10.4551 25.542C10.839 25.1843 11.2006 24.8036 11.5381 24.402C11.6131 24.309 11.5381 23.991 11.4211 23.877C11.3041 23.763 10.9831 23.676 10.8931 23.748C10.4698 24.0875 10.0863 24.474 9.75014 24.9C9.52514 25.182 9.81314 25.596 10.2301 25.614V25.605ZM15.4591 27.684L14.6161 28.668C14.9162 28.7994 15.2288 28.8999 15.5491 28.968C15.6601 28.968 15.9241 28.71 15.9031 28.632C15.7809 28.3074 15.6324 27.9934 15.4591 27.693V27.684Z" fill="var(--fill-0, #0E4D80)"/>
</svg>
