<svg preserveAspectRatio="none" width="100%" height="100%" overflow="visible" style="display: block;" viewBox="0 0 13.92 13.8082" fill="none" xmlns="http://www.w3.org/2000/svg">
<path id="Vector" d="M6.921 13.8075C5.09514 13.8131 3.3415 13.0948 2.04425 11.8099C0.746994 10.525 0.0118993 8.77833 0 6.9525C0.00198912 5.1066 0.73718 3.33708 2.04384 2.03324C3.3505 0.729391 5.12159 -0.00198508 6.9675 4.04676e-06C8.81341 0.00199317 10.5829 0.737185 11.8868 2.04384C13.1906 3.3505 13.922 5.1216 13.92 6.9675C13.9122 7.87696 13.7247 8.77589 13.3682 9.61261C13.0117 10.4493 12.4934 11.2073 11.8429 11.843C11.1925 12.4787 10.4228 12.9795 9.57808 13.3166C8.73339 13.6538 7.83039 13.8206 6.921 13.8075ZM6.96 12.4335C8.42194 12.4423 9.82766 11.8708 10.8687 10.8443C11.9098 9.81791 12.5011 8.42042 12.513 6.9585C12.4792 5.50455 11.878 4.12151 10.8377 3.10514C9.79747 2.08877 8.40084 1.51974 6.9465 1.51974C5.49215 1.51974 4.09553 2.08877 3.05529 3.10514C2.01505 4.12151 1.41376 5.50455 1.38 6.9585C1.38469 7.68503 1.53299 8.40345 1.81637 9.07245C2.09975 9.74144 2.51261 10.3478 3.03121 10.8566C3.5498 11.3655 4.16389 11.7667 4.83815 12.0374C5.51241 12.308 6.23352 12.4426 6.96 12.4335Z" fill="var(--fill-0, #0E4D80)"/>
</svg>
