<svg preserveAspectRatio="none" width="100%" height="100%" overflow="visible" style="display: block;" viewBox="0 0 11.3365 1.90063" fill="none" xmlns="http://www.w3.org/2000/svg">
<path id="Vector" d="M0.911495 0.0220071C4.1875 0.322007 7.46249 0.622007 10.7365 0.922007C11.0695 0.952007 11.3365 1.06901 11.3365 1.42001C11.3365 1.77101 11.0365 1.92701 10.6885 1.89701L4.9465 1.37201L0.998495 1.00901C0.821495 0.994007 0.644495 0.985007 0.467495 0.961007C0.397839 0.962296 0.328803 0.947712 0.26562 0.918361C0.202437 0.88901 0.146765 0.845661 0.102822 0.791599C0.0588793 0.737538 0.0278189 0.674183 0.0119956 0.606336C-0.00382775 0.538489 -0.00399879 0.46793 0.0114949 0.400007C0.0534949 0.0820072 0.284495 -0.0109928 0.572495 0.00100721C0.686495 0.00100721 0.797495 0.0190073 0.911495 0.0310073V0.0220071Z" fill="var(--fill-0, #0E4D80)"/>
</svg>
