<svg preserveAspectRatio="none" width="100%" height="100%" overflow="visible" style="display: block;" viewBox="0 0 30.123 29.9949" fill="none" xmlns="http://www.w3.org/2000/svg">
<path id="Vector" d="M24.807 21.9789C24.156 21.3369 24.072 20.6739 24.543 19.8789C26.1521 17.2546 26.7603 14.1377 26.256 11.1009C25.149 3.99993 18.402 -0.920067 11.214 0.144933C4.902 1.08093 0.087 6.66693 0 13.1499L0.09 13.9569C0.156 14.5569 0.219 15.1419 0.336 15.7239C0.740241 17.7913 1.63582 19.7311 2.94716 21.3797C4.2585 23.0282 5.94713 24.3372 7.87058 25.1961C9.79403 26.055 11.8959 26.4387 13.9987 26.3147C16.1016 26.1908 18.1438 25.5629 19.953 24.4839C20.2332 24.301 20.5577 24.1974 20.892 24.1839C21.1108 24.193 21.3255 24.247 21.5226 24.3424C21.7198 24.4379 21.8952 24.5729 22.038 24.7389C24.195 26.9319 24.483 27.1389 26.67 29.3079C27.483 30.1119 28.47 30.2079 29.322 29.6079C29.548 29.4511 29.7367 29.2465 29.8746 29.0085C30.0125 28.7705 30.0963 28.505 30.12 28.2309C30.1366 27.9185 30.0851 27.6061 29.969 27.3156C29.853 27.025 29.6752 26.763 29.448 26.5479C27.3 24.3549 27 24.1389 24.807 21.9789ZM20.76 20.7009C19.7733 21.6927 18.5998 22.4791 17.3073 23.0146C16.0148 23.5502 14.629 23.8242 13.23 23.8209H13.2C10.3754 23.8158 7.66863 22.6888 5.67502 20.6878C3.68142 18.6869 2.56433 15.976 2.5695 13.1514C2.57467 10.3269 3.70168 7.62006 5.7026 5.62646C7.70352 3.63285 10.4144 2.51576 13.239 2.52093C15.3463 2.51868 17.4069 3.14218 19.1594 4.3124C20.912 5.48262 22.2776 7.14686 23.0832 9.09413C23.8888 11.0414 24.098 13.184 23.6844 15.2504C23.2708 17.3167 22.253 19.2137 20.76 20.7009Z" fill="var(--fill-0, #0E4D80)"/>
</svg>
