<svg preserveAspectRatio="none" width="100%" height="100%" overflow="visible" style="display: block;" viewBox="0 0 26 24" fill="none" xmlns="http://www.w3.org/2000/svg">
<path id="Vector" d="M25.0463 3.12217C24.7926 2.79034 24.5184 2.474 24.2251 2.17491C21.92 0.0719734 19.2464 -0.540592 16.2656 0.488771C12.7417 1.70759 13.7536 1.85599 10.0518 0.532977C7.84051 -0.256412 5.77465 0.106706 3.88337 1.38552C1.32611 3.10323 0.22367 5.63243 0.0329262 8.5658C-0.185352 12.083 0.685451 15.5829 2.532 18.61C3.39001 20.0242 4.37683 21.36 5.48045 22.6011C6.71544 24.0189 8.32868 24.3441 10.123 23.621C10.5045 23.4663 10.8892 23.3053 11.2771 23.1663C12.0323 22.8685 12.8402 22.719 13.6546 22.7266C14.469 22.7342 15.2739 22.8986 16.0231 23.2105C16.4046 23.3684 16.7926 23.5263 17.1805 23.6684C18.8713 24.2999 20.4329 24.0536 21.6258 22.7211C22.6389 21.5962 23.5488 20.3864 24.3447 19.1057C25.0139 18.029 25.4569 16.8165 26 15.6671C20.6462 13.1537 20.0772 6.36814 25.0463 3.12217Z" fill="var(--fill-0, white)"/>
</svg>
