<svg preserveAspectRatio="none" width="100%" height="100%" overflow="visible" style="display: block;" viewBox="0 0 30 30" fill="none" xmlns="http://www.w3.org/2000/svg">
<path id="Vector" d="M25.594 3.88916C24.3815 5.06008 23.2115 6.16012 22.0749 7.29714C21.7051 7.66999 21.4293 7.54057 21.0565 7.32488C18.5104 5.85815 15.8037 5.23263 12.903 5.89512C8.39275 6.92122 5.60722 10.9177 5.91032 15.8541C6.06237 18.016 6.96032 20.054 8.44586 21.6087C9.93141 23.1635 11.9092 24.1351 14.0305 24.3525C15.9865 24.594 17.9702 24.2849 19.7652 23.4589C22.0234 22.3958 23.3601 20.5778 24.0693 18.0203H15.3793V12.9607H29.8556C30.6225 19.0494 28.3977 25.9178 21.6718 28.7218C14.6428 31.6399 6.6408 29.446 2.55192 23.3202C-2.78576 15.3087 0.581737 4.59787 9.56273 1.13442C15.2793 -1.08107 20.9595 0.006646 25.594 3.88916Z" fill="var(--fill-0, white)"/>
</svg>
