<svg preserveAspectRatio="none" width="100%" height="100%" overflow="visible" style="display: block;" viewBox="0 0 27.447 29.9996" fill="none" xmlns="http://www.w3.org/2000/svg">
<path id="Vector" d="M22.779 28.8716C22.638 29.7896 22.392 29.9996 21.438 29.9996H20.565C19.623 29.9996 19.365 29.7836 19.218 28.8776C18.831 28.6376 18.486 28.5266 18.045 28.8446C17.959 28.9011 17.8626 28.9399 17.7615 28.9588C17.6603 28.9776 17.5564 28.9761 17.4559 28.9543C17.3553 28.9325 17.2601 28.8909 17.1758 28.8319C17.0915 28.7729 17.0199 28.6976 16.965 28.6106C16.464 27.9236 15.804 27.8486 15.024 27.8546C11.085 27.8876 7.146 27.8726 3.21 27.8546C2.80858 27.8533 2.40768 27.8253 2.01 27.7706C0.66 27.5996 0 26.8616 0 25.4996C0 22.3676 0 19.2366 0 16.1066C0 15.1706 0 14.2346 0 13.2986C0 12.3986 0.375 12.0386 1.272 12.0236C2.046 12.0236 2.823 12.0236 3.597 12.0236C3.897 12.0236 4.005 11.9186 4.032 11.6096C4.317 8.26758 4.632 4.92858 4.914 1.58658C5.031 0.338584 5.613 -0.105416 6.885 0.0205838C8.907 0.221584 10.935 0.377584 12.957 0.560584C15.657 0.803584 18.357 1.09458 21.057 1.28358C21.3821 1.29842 21.7002 1.38363 21.9892 1.53331C22.2782 1.68299 22.5313 1.89359 22.731 2.15058C23.0594 2.52801 23.4069 2.88848 23.772 3.23058C23.9271 3.37129 24.045 3.5482 24.1152 3.74555C24.1853 3.94289 24.2055 4.15453 24.174 4.36158C23.952 6.67558 23.738 8.98758 23.532 11.2976C23.505 11.6186 23.499 11.9396 23.478 12.3386C23.751 12.3386 23.985 12.3386 24.219 12.3386C25.119 12.3386 25.596 12.8066 25.599 13.7096C25.599 15.3386 25.599 16.9706 25.617 18.5996C25.6339 18.8744 25.7391 19.1364 25.917 19.3466C26.481 19.9706 26.517 20.1806 26.106 20.9126C26.0561 21.0832 26.0664 21.2658 26.1352 21.4297C26.2041 21.5936 26.3272 21.7288 26.484 21.8126C27.267 22.0286 27.441 22.2566 27.447 23.0666C27.447 23.4386 27.447 23.8106 27.447 24.1796C27.447 24.8576 27.195 25.1456 26.547 25.2896C26.4535 25.3215 26.3681 25.3733 26.2965 25.4415C26.225 25.5096 26.1691 25.5924 26.1326 25.6842C26.0961 25.776 26.0799 25.8746 26.0852 25.9732C26.0904 26.0719 26.117 26.1682 26.163 26.2556C26.511 26.7926 26.463 27.1766 26.025 27.6386C25.686 27.9866 25.341 28.3256 24.993 28.6616C24.645 28.9976 24.267 29.1056 23.943 28.8446C23.505 28.4996 23.163 28.6736 22.779 28.8716ZM4.653 15.7166C4.7194 15.7369 4.7878 15.75 4.857 15.7556C7.68 15.7556 10.506 15.7556 13.329 15.7556C13.4165 15.7388 13.4993 15.7033 13.5718 15.6515C13.6443 15.5997 13.7048 15.5329 13.749 15.4556C14.187 14.7206 14.616 13.9796 15.003 13.2206C15.1236 12.9297 15.3345 12.6852 15.6046 12.5232C15.8746 12.3612 16.1895 12.2901 16.503 12.3206C18.327 12.3596 20.151 12.3206 21.975 12.3446C22.407 12.3446 22.509 12.2006 22.539 11.7986C22.665 10.1276 22.839 8.45658 22.98 6.78858C23.028 6.23358 23.067 5.67858 23.112 5.11758C22.446 5.04858 21.837 4.97958 21.228 4.92258C20.499 4.85658 20.19 4.50558 20.247 3.77958C20.289 3.26958 20.34 2.76258 20.391 2.20458C19.518 2.12958 18.669 2.06058 17.82 1.98258C14.08 1.64858 10.339 1.30858 6.597 0.962584C6.168 0.923584 5.955 1.07058 5.931 1.49958C5.826 2.69958 5.715 3.89958 5.61 5.09958C5.427 7.13958 5.25 9.17958 5.067 11.2196C4.923 12.7226 4.788 14.2136 4.653 15.7166ZM24.627 18.0446C24.627 16.6376 24.627 15.1556 24.627 13.6736C24.627 13.2746 24.348 13.3136 24.087 13.3136C21.555 13.3136 19.023 13.3136 16.488 13.3136C16.3541 13.304 16.2207 13.3371 16.1069 13.4083C15.9931 13.4795 15.9049 13.585 15.855 13.7096C15.414 14.5346 14.925 15.3326 14.496 16.1606C14.4194 16.3539 14.282 16.5171 14.1044 16.6253C13.9269 16.7336 13.7189 16.7811 13.512 16.7606C10.302 16.7396 7.092 16.7606 3.882 16.7606H3.312V26.8736H15.531C15.63 26.6606 15.702 26.4626 15.807 26.2736C15.8617 26.1817 15.8939 26.0782 15.901 25.9715C15.9081 25.8648 15.8898 25.7579 15.8477 25.6596C15.8055 25.5613 15.7407 25.4744 15.6586 25.4059C15.5765 25.3374 15.4793 25.2893 15.375 25.2656C15.1468 25.2472 14.9349 25.1401 14.7847 24.9675C14.6344 24.7948 14.5577 24.5701 14.571 24.3416C14.553 23.8076 14.553 23.2766 14.571 22.7426C14.5629 22.515 14.6413 22.2928 14.7905 22.1208C14.9397 21.9488 15.1486 21.8397 15.375 21.8156C15.4797 21.7938 15.5776 21.7469 15.6603 21.6791C15.743 21.6112 15.808 21.5244 15.8499 21.4259C15.8917 21.3275 15.9092 21.2204 15.9006 21.1138C15.8921 21.0071 15.8579 20.9041 15.801 20.8136C15.6509 20.6295 15.5767 20.3952 15.5934 20.1583C15.6101 19.9213 15.7165 19.6997 15.891 19.5386C16.245 19.1606 16.608 18.7946 16.986 18.4436C17.1479 18.2702 17.3697 18.1648 17.6063 18.1486C17.843 18.1325 18.077 18.2068 18.261 18.3566C18.3499 18.4124 18.4509 18.4461 18.5555 18.4548C18.6601 18.4636 18.7653 18.4472 18.8622 18.4069C18.9592 18.3667 19.045 18.3038 19.1127 18.2235C19.1803 18.1433 19.2278 18.0479 19.251 17.9456C19.278 17.7102 19.3928 17.4936 19.5724 17.339C19.7519 17.1845 19.9832 17.1032 20.22 17.1116C20.718 17.1116 21.219 17.1116 21.72 17.1116C22.32 17.1116 22.62 17.3876 22.725 18.0116C22.782 18.3356 23.355 18.5846 23.649 18.4346C23.943 18.2846 24.231 18.2006 24.627 18.0446ZM25.413 26.8706C25.113 26.5526 24.759 26.3276 24.999 25.8476C25.176 25.4906 25.272 25.0886 25.47 24.7436C25.6051 24.5611 25.7892 24.4206 26.001 24.3386C26.1504 24.2978 26.3059 24.2846 26.46 24.2996V22.7336C25.629 23.0036 25.449 22.4516 25.29 21.8726C25.2817 21.8252 25.2655 21.7796 25.242 21.7376C24.9 21.2006 24.723 20.6786 25.395 20.2706L24.285 19.1126C23.922 19.7936 23.448 19.7126 22.932 19.3706C22.8514 19.316 22.7606 19.2782 22.665 19.2596C22.065 19.1246 21.603 18.8606 21.765 18.1286H20.199C20.367 18.8006 20.04 19.0886 19.467 19.2236C19.2339 19.2919 19.0117 19.3929 18.807 19.5236C18.7416 19.5738 18.6668 19.6105 18.587 19.6314C18.5072 19.6523 18.4241 19.657 18.3424 19.6453C18.2608 19.6335 18.1823 19.6056 18.1117 19.563C18.041 19.5205 17.9796 19.4642 17.931 19.3976C17.8626 19.328 17.7872 19.2656 17.706 19.2116L16.563 20.2616C17.235 20.6456 17.133 21.1256 16.806 21.6566C16.683 21.8606 16.668 22.1336 16.533 22.3226C16.3873 22.508 16.2031 22.6595 15.993 22.7666C15.8529 22.8077 15.7064 22.8219 15.561 22.8086V24.3656C16.263 24.1886 16.545 24.5336 16.674 25.1306C16.7475 25.378 16.8545 25.6142 16.992 25.8326C17.0681 25.9481 17.0988 26.0876 17.0783 26.2243C17.0579 26.3611 16.9876 26.4855 16.881 26.5736C16.8073 26.6455 16.74 26.7238 16.68 26.8076C17.034 27.2126 17.358 27.5816 17.685 27.9596C17.985 27.6806 18.216 27.3086 18.699 27.5516C19.056 27.7286 19.461 27.8216 19.803 28.0256C19.9861 28.1782 20.1267 28.3756 20.211 28.5986C20.2489 28.731 20.2621 28.8693 20.25 29.0066H21.786C21.585 28.2566 22.026 27.9986 22.623 27.8606C22.7188 27.8428 22.8103 27.8071 22.893 27.7556C23.421 27.3926 23.904 27.3476 24.294 27.9716C24.681 27.5996 25.032 27.2486 25.413 26.8706ZM2.313 26.7896V17.2226C2.313 16.1306 2.541 15.8666 3.672 15.7226L3.915 13.0226C2.994 13.0226 2.115 13.0226 1.26 13.0406C1.167 13.0406 1.002 13.2986 1.002 13.4366C0.98 17.4986 0.971 21.5606 0.975 25.6226C0.975 26.4356 1.431 26.8166 2.313 26.7896ZM21.213 3.95658L23.148 4.13958L23.181 4.01958L21.381 2.32758C21.321 2.84958 21.267 3.36558 21.207 3.95658H21.213Z" fill="var(--fill-0, #0E4D80)"/>
</svg>
