<svg preserveAspectRatio="none" width="100%" height="100%" overflow="visible" style="display: block;" viewBox="0 0 19.8 13.548" fill="none" xmlns="http://www.w3.org/2000/svg">
<path id="Vector" d="M19.8 4.33C19.8 3.76138 19.688 3.19832 19.4704 2.67298C19.2528 2.14764 18.9338 1.67031 18.5318 1.26823C18.1297 0.86615 17.6524 0.547205 17.127 0.329602C16.6017 0.111999 16.0386 0 15.47 0H4.33C3.18161 0 2.08026 0.456195 1.26823 1.26823C0.456195 2.08026 0 3.18161 0 4.33V9.218C0 10.3664 0.456195 11.4677 1.26823 12.2798C2.08026 13.0918 3.18161 13.548 4.33 13.548H15.47C16.0386 13.548 16.6017 13.436 17.127 13.2184C17.6524 13.0008 18.1297 12.6819 18.5318 12.2798C18.9338 11.8777 19.2528 11.4004 19.4704 10.875C19.688 10.3497 19.8 9.78662 19.8 9.218V4.33ZM13.674 6.902L8.7 9.358C8.5 9.464 7.826 9.322 7.826 9.102V4.06C7.826 3.836 8.512 3.696 8.706 3.806L13.466 6.392C13.656 6.506 13.874 6.794 13.674 6.902Z" fill="var(--fill-0, #1A1A1A)"/>
</svg>
