<svg preserveAspectRatio="none" width="100%" height="100%" overflow="visible" style="display: block;" viewBox="0 0 8.73276 15.7665" fill="none" xmlns="http://www.w3.org/2000/svg">
<path id="Vector" d="M0.00647991 7.8716C0.00647991 6.4106 0.00647991 4.9496 0.00647991 3.4856C0.00647991 1.38561 1.42248 -0.00339562 3.55248 0.00560438C4.67225 -0.0193069 5.79232 0.0388531 6.90348 0.179605C7.45848 0.266605 7.97748 0.719605 8.45748 1.0796C8.5388 1.13194 8.60626 1.20316 8.65412 1.28719C8.70198 1.37121 8.72883 1.46557 8.73236 1.56221C8.7359 1.65885 8.71602 1.75491 8.67443 1.84221C8.63284 1.92951 8.57076 2.00547 8.49348 2.0636C8.43082 2.13696 8.3525 2.19533 8.26429 2.23441C8.17608 2.27349 8.08023 2.29228 7.98379 2.2894C7.88736 2.28652 7.7928 2.26205 7.70707 2.21778C7.62135 2.17351 7.54665 2.11057 7.48848 2.0336C7.26612 1.80443 6.99602 1.62703 6.69738 1.514C6.39873 1.40097 6.07886 1.35508 5.76048 1.3796C4.94448 1.4066 4.12848 1.3796 3.31548 1.3796C3.06729 1.37362 2.82039 1.41715 2.5892 1.50764C2.35801 1.59813 2.14717 1.73378 1.96899 1.90666C1.7908 2.07953 1.64885 2.28618 1.55141 2.51453C1.45397 2.74287 1.403 2.98834 1.40148 3.2366C1.38148 6.3226 1.38148 9.4076 1.40148 12.4916C1.40422 12.7401 1.45593 12.9855 1.55364 13.214C1.65135 13.4425 1.79315 13.6494 1.97092 13.823C2.1487 13.9966 2.35896 14.1334 2.58967 14.2257C2.82039 14.3179 3.06703 14.3638 3.31548 14.3606C4.2151 14.407 5.11669 14.4 6.01548 14.3396C6.50398 14.259 6.9677 14.0681 7.37148 13.7816C7.83348 13.4816 8.18448 13.4006 8.47548 13.6976C8.76648 13.9946 8.73648 14.4206 8.31948 14.8136C7.79294 15.3474 7.08784 15.6679 6.33948 15.7136C5.21859 15.7841 4.09437 15.7841 2.97348 15.7136C2.16471 15.643 1.41183 15.2716 0.863599 14.6729C0.315367 14.0741 0.0116579 13.2914 0.01248 12.4796C-0.01152 10.9406 0.00647991 9.4076 0.00647991 7.8716Z" fill="var(--fill-0, #0E4D80)"/>
</svg>
