<svg preserveAspectRatio="none" width="100%" height="100%" overflow="visible" style="display: block;" viewBox="0 0 389.597 514" fill="none" xmlns="http://www.w3.org/2000/svg">
<g id="Union" filter="url(#filter0_d_543_589)">
<path d="M383.097 503.5H150.536C129.973 503.5 119.691 503.5 111.141 500.265C100.634 496.29 91.7712 488.893 85.9825 479.266C81.2714 471.431 79.4347 461.314 75.7598 441.082L12.3682 92.082C7.27769 64.0563 4.73278 50.0435 7.88187 38.9014C11.7475 25.2238 21.2512 13.8377 34.0176 7.58984C44.4176 2.50019 58.6602 2.5 87.1446 2.5H383.097V503.5Z" fill="var(--fill-0, white)"/>
<path d="M383.097 503.5V504H383.597V503.5H383.097ZM111.141 500.265L110.964 500.732L110.964 500.732L111.141 500.265ZM85.9825 479.266L85.5539 479.523L85.5539 479.523L85.9825 479.266ZM75.7598 441.082L76.2517 440.993L76.2517 440.993L75.7598 441.082ZM12.3682 92.082L11.8762 92.1714L11.8762 92.1714L12.3682 92.082ZM7.88187 38.9014L7.40071 38.7654L7.40071 38.7654L7.88187 38.9014ZM34.0176 7.58984L33.7978 7.14074L33.7978 7.14074L34.0176 7.58984ZM87.1446 2.5L87.1446 2L87.1446 2.5ZM383.097 2.5H383.597V2H383.097V2.5ZM383.097 503.5V503H150.536V503.5V504H383.097V503.5ZM150.536 503.5V503C129.93 503 119.762 502.992 111.318 499.797L111.141 500.265L110.964 500.732C119.621 504.008 130.016 504 150.536 504V503.5ZM111.141 500.265L111.318 499.797C100.916 495.862 92.1418 488.539 86.411 479.008L85.9825 479.266L85.5539 479.523C91.4006 489.247 100.352 496.718 110.964 500.732L111.141 500.265ZM85.9825 479.266L86.411 479.008C81.7586 471.271 79.9343 461.267 76.2517 440.993L75.7598 441.082L75.2678 441.171C78.9351 461.362 80.7842 471.591 85.5539 479.523L85.9825 479.266ZM75.7598 441.082L76.2517 440.993L12.8601 91.9927L12.3682 92.082L11.8762 92.1714L75.2678 441.171L75.7598 441.082ZM12.3682 92.082L12.8601 91.9927C10.3135 77.9722 8.40895 67.4843 7.53247 59.1083C6.65635 50.7358 6.81349 44.5199 8.36302 39.0374L7.88187 38.9014L7.40071 38.7654C5.80115 44.425 5.6562 50.7865 6.5379 59.2124C7.41923 67.6347 9.33237 78.1661 11.8762 92.1714L12.3682 92.082ZM7.88187 38.9014L8.36302 39.0374C12.19 25.4966 21.5986 14.2244 34.2374 8.03895L34.0176 7.58984L33.7978 7.14074C20.9037 13.4511 11.305 24.9511 7.40071 38.7654L7.88187 38.9014ZM34.0176 7.58984L34.2374 8.03895C39.3548 5.53456 45.4427 4.26912 53.8371 3.63488C62.2351 3.00038 72.8947 3 87.1446 3L87.1446 2.5L87.1446 2C72.9101 2 62.2062 1.99971 53.7618 2.63772C45.3139 3.276 39.0805 4.55547 33.7978 7.14074L34.0176 7.58984ZM87.1446 2.5V3H383.097V2.5V2H87.1446V2.5ZM383.097 2.5H382.597V503.5H383.097H383.597V2.5H383.097Z" fill="var(--stroke-0, black)"/>
</g>
<defs>
<filter id="filter0_d_543_589" x="5.96046e-08" y="0" width="389.597" height="514" filterUnits="userSpaceOnUse" color-interpolation-filters="sRGB">
<feFlood flood-opacity="0" result="BackgroundImageFix"/>
<feColorMatrix in="SourceAlpha" type="matrix" values="0 0 0 0 0 0 0 0 0 0 0 0 0 0 0 0 0 0 127 0" result="hardAlpha"/>
<feOffset dy="4"/>
<feGaussianBlur stdDeviation="3"/>
<feComposite in2="hardAlpha" operator="out"/>
<feColorMatrix type="matrix" values="0 0 0 0 0 0 0 0 0 0 0 0 0 0 0 0 0 0 0.25 0"/>
<feBlend mode="normal" in2="BackgroundImageFix" result="effect1_dropShadow_543_589"/>
<feBlend mode="normal" in="SourceGraphic" in2="effect1_dropShadow_543_589" result="shape"/>
</filter>
</defs>
</svg>
